<!-- Generator: Adobe Illustrator 21.0.0, SVG Export Plug-In  -->
<svg version="1.1"
	 xmlns="http://www.w3.org/2000/svg" xmlns:xlink="http://www.w3.org/1999/xlink" xmlns:a="http://ns.adobe.com/AdobeSVGViewerExtensions/3.0/"
	 x="0px" y="0px" width="61.142px" height="63.838px" viewBox="0 0 61.142 63.838"
	 style="enable-background:new 0 0 61.142 63.838;" xml:space="preserve">
<defs>
</defs>
<path d="M60.306,58.759L40.604,37.786C44.09,33.642,46,28.428,46,23C46,10.318,35.682,0,23,0S0,10.318,0,23s10.318,23,23,23
	c4.761,0,9.298-1.436,13.177-4.162l19.805,21.08c0.571,0.593,1.339,0.92,2.162,0.92c0.779,0,1.518-0.297,2.079-0.837
	C61.415,61.854,61.453,59.952,60.306,58.759z M23,6c9.374,0,17,7.626,17,17s-7.626,17-17,17S6,32.374,6,23S13.626,6,23,6z"/>
</svg>