<!-- Generator: Adobe Illustrator 21.0.0, SVG Export Plug-In  -->
<svg version="1.1"
	 xmlns="http://www.w3.org/2000/svg" xmlns:xlink="http://www.w3.org/1999/xlink" xmlns:a="http://ns.adobe.com/AdobeSVGViewerExtensions/3.0/"
	 x="0px" y="0px" width="81.575px" height="71.652px" viewBox="0 0 81.575 71.652"
	 style="enable-background:new 0 0 81.575 71.652;" xml:space="preserve">
<defs>
</defs>
<g>
	<path d="M19.774,32.984L6.376,46.925v23.528c0,0.66,0.535,1.199,1.199,1.199h16.266c0.664,0,1.203-0.539,1.203-1.199V34.367
		l-3.754-1.383H19.774z M19.774,32.984"/>
	<path d="M52.907,43.918H36.642c-0.664,0-1.2,0.539-1.2,1.203v25.332c0,0.66,0.536,1.199,1.2,1.199h16.265
		c0.664,0,1.203-0.539,1.203-1.199V45.121C54.11,44.457,53.571,43.918,52.907,43.918L52.907,43.918z M52.907,43.918"/>
	<g>
		<path d="M81.38,18.633c-0.621,0.324-1.32,0.496-2.024,0.496c-1.023,0-2.015-0.36-2.8-1.016l-2.957-2.473L62.907,27.304v43.149
			c0,0.664,0.539,1.199,1.199,1.199h16.27c0.664,0,1.199-0.535,1.199-1.199V18.508C81.509,18.55,81.45,18.593,81.38,18.633
			L81.38,18.633z M81.38,18.633"/>
		<path d="M46.239,38.316c0.914,0.332,1.938,0.086,2.598-0.633l24.672-26.914l5.773,4.828c0.281,0.235,0.676,0.278,1.004,0.106
			c0.324-0.168,0.516-0.516,0.485-0.883L79.517,0.828c-0.043-0.5-0.485-0.871-0.985-0.824L64.54,1.254
			c-0.367,0.035-0.676,0.285-0.785,0.632c-0.035,0.118-0.051,0.235-0.039,0.352c0.019,0.238,0.133,0.461,0.324,0.617l5.781,4.832
			L46.384,33.254L19.63,23.41c-0.895-0.328-1.899-0.098-2.559,0.59L0.669,41.066c-0.918,0.953-0.887,2.473,0.07,3.391
			c0.465,0.449,1.063,0.672,1.66,0.672c0.633,0,1.262-0.246,1.731-0.739l15.312-15.933L46.239,38.316z M46.239,38.316"/>
	</g>
</g>
</svg>