<!-- Generator: Adobe Illustrator 21.0.0, SVG Export Plug-In  -->
<svg version="1.1"
	 xmlns="http://www.w3.org/2000/svg" xmlns:xlink="http://www.w3.org/1999/xlink" xmlns:a="http://ns.adobe.com/AdobeSVGViewerExtensions/3.0/"
	 x="0px" y="0px" width="20.801px" height="11.199px" viewBox="0 0 20.801 11.199"
	 style="enable-background:new 0 0 20.801 11.199;" xml:space="preserve">
<defs>
</defs>
<g>
	<path d="M10.398,3.199C9.039,3.199,8,4.238,8,5.602C8,6.961,9.039,8,10.398,8c1.364,0,2.403-1.039,2.403-2.398
		C12.801,4.238,11.762,3.199,10.398,3.199L10.398,3.199z M10.398,6.398c-0.476,0-0.796-0.32-0.796-0.796
		c0-0.481,0.32-0.801,0.796-0.801c0.481,0,0.801,0.32,0.801,0.801C11.199,6.078,10.879,6.398,10.398,6.398L10.398,6.398z
		 M10.398,6.398"/>
	<path d="M10.398,0C3.199,0,0,5.602,0,5.602s3.199,5.597,10.398,5.597c7.204,0,10.403-5.597,10.403-5.597S17.602,0,10.398,0
		L10.398,0z M10.398,8.801c-1.757,0-3.199-1.442-3.199-3.199c0-1.762,1.442-3.204,3.199-3.204c1.762,0,3.204,1.442,3.204,3.204
		C13.602,7.359,12.16,8.801,10.398,8.801L10.398,8.801z M10.398,8.801"/>
</g>
</svg>