<!-- Generator: Adobe Illustrator 21.0.0, SVG Export Plug-In  -->
<svg version="1.1"
	 xmlns="http://www.w3.org/2000/svg" xmlns:xlink="http://www.w3.org/1999/xlink" xmlns:a="http://ns.adobe.com/AdobeSVGViewerExtensions/3.0/"
	 x="0px" y="0px" width="277.252px" height="385.61px" viewBox="0 0 277.252 385.61"
	 style="enable-background:new 0 0 277.252 385.61;" xml:space="preserve">
<defs>
</defs>
<g>
	<g>
		<path d="M239.859,347.387h-5.125c-0.859-4.242-1.644-9.308-2.339-14.719H20.441c-0.421,4.77-0.769,9.649-0.98,14.719h-0.352
			C8.562,347.387,0,355.942,0,366.501c0,10.554,8.562,19.109,19.109,19.109h220.75c10.551,0,19.114-8.555,19.114-19.109
			C258.973,355.942,250.41,347.387,239.859,347.387L239.859,347.387z M239.859,347.387"/>
		<path d="M34.938,161.708c1.48,2.093,3.746,3.519,6.285,3.957c2.523,0.433,5.136-0.157,7.238-1.645l34.691-24.559
			c4.278-3.035,10.114-2.652,13.973,0.926c9.441,8.746,22.742,11.992,35.148,8.59c9.543-2.613,17.457-8.914,22.309-17.269
			c1.816,14.003-5.027,35.671-46.906,62.941c-38.785,25.25-63.172,51.492-76.321,87.055h200.829
			c2.312-20.411,7.699-43.036,18.898-66.625c23.406-38.063,49.695-107.278-11.758-171.418
			C188.039-9.863,142.414-3.476,116.832,7.485c-12.441,5.324-18.352,19.441-13.676,32.019L74.465,12.93
			c-1.602-1.488-4.004-1.734-5.895-0.613c-1.879,1.133-2.789,3.375-2.23,5.496l9.469,35.98c-3.457,2.856-6.633,6.059-9.094,9.918
			l-44.457,69.622c-2.113,3.328-2.016,7.601,0.262,10.824L34.938,161.708z M34.938,161.708"/>
	</g>
	<path d="M15.566,319.926h224.293c7.043,0,12.743-5.703,12.743-12.742c0-7.035-5.7-12.738-12.743-12.738H15.566
		c-7.043,0-12.742,5.703-12.742,12.738C2.824,314.223,8.523,319.926,15.566,319.926L15.566,319.926z M15.566,319.926"/>
</g>
</svg>