<svg xmlns="http://www.w3.org/2000/svg" xmlns:xlink="http://www.w3.org/1999/xlink" viewBox="0 0 878.74 878.74"><defs><style>.cls-1{fill:url(#New_Gradient_Swatch_2);}.cls-2{fill:#fff;}</style><linearGradient id="New_Gradient_Swatch_2" x1="9.13" y1="115.16" x2="869.61" y2="763.58" gradientUnits="userSpaceOnUse"><stop offset="0" stop-color="#204e86"/><stop offset="1" stop-color="#133053"/></linearGradient></defs><title>Vectors ER IS II Icons v1</title><g id="Backgrounds"><rect class="cls-1" x="14.17" y="14.17" width="850.39" height="850.39" rx="141.73" ry="141.73"/></g><g id="Icons"><path class="cls-2" d="M650.87,372.66c-5.24-9.3-39.75-55.18-70-85.4-14.32-14.29-13.57-19.76-36.11-19.76-5.58-.5-9.4,5.47-21.55-.58S510.35,256.46,484.73,253s-42.52,25.57-42.52,25.57-4.62,11.83-14.56,13.37c-33.2,3.48-51.84,43.58-56.5,56.36S342,371.53,342,371.53c-55.91,7-69.89,62.75-69.89,62.75s-2.91,10.47-13.4,4.07-7-60.43-5.24-65.08-9.9-26.15-23.3-29.06-28.54-1.71-29.7,2.33-9.9,8.7-9.9,22.07,23.3-.58,23.3-.58,18.64-9.88,26.21-2.32,4.08,44.74,4.66,52.88-4.08,38.35,15.14,37.77,19.8,3.5,19.8,3.5,4.08,18.59,18.64,30.79c6.7,1.17-5.82,7.56-9.32,13.37s-11.65,8.72-7,60.44c0,0-8.81,16.76-18.64,26.72a57.62,57.62,0,0,1-10.48,8.14c-7,3.48-7.57,11.62-6.41,15.1s10.6,9.74,12.81,11.62c4.08-5.22,10.48-12.78,10.48-12.78s53.58-77.86,54.17-80.2,37.27,8.14,62.9-37.19c3.57-17.12-2.46-27.71-5.63-33.2-1-1.68-2.12-2-3.4-5.73,5.24,3.78,15.68,30.54,22.2,29.3,18.68-3.56,39.82.33,48.56-6.64s34.36-16.85,39-18c0,0-16.89-15.1-22.72-32.53,13.11,24,39.9,46.63,49.51,45.32,0,0,4.66,1.74,15.14,5.23-4.08,5.22-33.2.87-34.51-.88s-1.75-7.84-7.43-8.27-13.54,1.31-15.73,3.49-11.36,11.33-11.36,16.12-.87,6.54,14.41,6.54c8.3.44,7,5.22,7,5.22s19.22,7.73,77.32,2.12C596,489.2,575,474.82,575,474.82s-24.9-28.76-23.59-36.61-.87-3.05,7.86-10,5.24-24,2.18-27,.44-15.69,11.36-15.69c-7.43,7-7.86,9.16-7.86,9.16s3.06,18.29,4.8,21.36-7,15.68-8.74,16.55,4.37,14.39,9.17,14.39.95,6.77,7.43,7.84c8.94-1.85,13.59-4.62,21-5.23,7.88-.65,14-1.3,21.84-3.91s26.06-16.28,29.12-18.89,21.55,4.08,29-1.59c-2.77-2.47-14-9.15-14-13.94,0,0,9.17,6.09,23.59-10.45C663.4,390.09,650.87,372.66,650.87,372.66Z"/></g></svg>